# MagicaVoxel @ Ephtracy

# material
mtllib salaJogador.mtl
usemtl palette

# normals
vn -1 0 0
vn 1 0 0
vn 0 0 1
vn 0 0 -1
vn 0 -1 0
vn 0 1 0

# texcoords
vt 0.00585938 0.5
vt 0.0136719 0.5
vt 0.0605469 0.5
vt 0.689453 0.5
vt 0.740234 0.5
vt 0.814453 0.5
vt 0.896484 0.5
vt 0.927734 0.5
vt 0.935547 0.5
vt 0.978516 0.5
vt 0.982422 0.5
vt 0.986328 0.5
vt 0.990234 0.5
vt 0.994141 0.5

# verts
v -20 0 20
v -20 0 -20
v -20 1 20
v -20 1 -19
v -20 1 -20
v -20 40 -19
v -20 40 -20
v -12 12 -6
v -12 12 -19
v -12 13 -6
v -12 13 -19
v -10 1 -8
v -10 1 -9
v -10 1 -16
v -10 1 -17
v -10 12 -8
v -10 12 -9
v -10 12 -16
v -10 12 -17
v -10 13 -10
v -10 13 -11
v -10 13 -18
v -10 20 -10
v -10 20 -11
v -10 20 -18
v -5 1 -0
v -5 1 -1
v -5 2 -0
v -5 2 -1
v -5 3 -0
v -5 3 -1
v -5 13 -7
v -5 13 -10
v -5 13 -11
v -5 14 -7
v -5 14 -10
v -5 14 -11
v -4 15 -14
v -4 15 -15
v -4 20 -14
v -4 20 -15
v -3 6 4
v -3 6 -4
v -3 7 3
v -3 7 -4
v -3 8 2
v -3 8 -4
v -3 13 -14
v -3 13 -17
v -3 14 -14
v -3 14 -17
v -3 16 4
v -3 16 3
v -3 16 2
v -2 14 -15
v -2 14 -16
v -2 15 -15
v -2 16 -15
v -2 19 -15
v -2 19 -16
v -1 1 3
v -1 1 2
v -1 1 -3
v -1 1 -4
v -1 2 3
v -1 2 2
v -1 2 -0
v -1 2 -1
v -1 2 -3
v -1 2 -4
v -1 3 3
v -1 3 -0
v -1 3 -1
v -1 3 -4
v -1 6 -0
v -1 6 -1
v 3 1 -0
v 3 1 -1
v 3 2 -0
v 3 2 -1
v 5 13 -8
v 5 13 -10
v 5 13 -11
v 5 14 -8
v 5 14 -10
v 5 14 -11
v 9 1 -8
v 9 1 -9
v 9 1 -16
v 9 1 -17
v 9 12 -8
v 9 12 -9
v 9 12 -16
v 9 12 -17
v -9 1 -8
v -9 1 -9
v -9 1 -16
v -9 1 -17
v -9 12 -8
v -9 12 -9
v -9 12 -16
v -9 12 -17
v -6 13 -10
v -6 13 -11
v -6 13 -18
v -6 20 -10
v -6 20 -11
v -6 20 -18
v -4 1 -0
v -4 1 -1
v -4 2 -0
v -4 2 -1
v 0 1 3
v 0 1 2
v 0 1 -3
v 0 1 -4
v 0 2 3
v 0 2 2
v 0 2 -0
v 0 2 -1
v 0 2 -3
v 0 2 -4
v 0 3 3
v 0 3 -0
v 0 3 -1
v 0 3 -4
v 0 6 -0
v 0 6 -1
v 1 14 -15
v 1 14 -16
v 1 15 -15
v 1 16 -15
v 1 19 -15
v 1 19 -16
v 2 13 -14
v 2 13 -17
v 2 14 -14
v 2 14 -17
v 3 6 4
v 3 6 -4
v 3 7 3
v 3 7 -4
v 3 8 2
v 3 8 -4
v 3 13 -7
v 3 13 -10
v 3 13 -11
v 3 14 -7
v 3 14 -10
v 3 14 -11
v 3 15 -14
v 3 15 -15
v 3 16 4
v 3 16 3
v 3 16 2
v 3 20 -14
v 3 20 -15
v 4 1 -0
v 4 1 -1
v 4 2 -0
v 4 2 -1
v 4 3 -0
v 4 3 -1
v 7 13 -8
v 7 13 -10
v 7 13 -11
v 7 14 -8
v 7 14 -10
v 7 14 -11
v 10 1 -8
v 10 1 -9
v 10 1 -16
v 10 1 -17
v 10 12 -8
v 10 12 -9
v 10 12 -16
v 10 12 -17
v 12 12 -6
v 12 12 -19
v 12 13 -6
v 12 13 -19
v 20 0 20
v 20 0 -20
v 20 1 20
v 20 1 -19
v 20 1 -20
v 20 40 -19
v 20 40 -20
v -20 0 20
v -20 1 20
v 20 0 20
v 20 1 20
v -3 6 4
v -3 16 4
v 3 6 4
v 3 16 4
v -1 1 3
v -1 2 3
v -1 3 3
v 0 1 3
v 0 2 3
v 0 3 3
v -5 1 -0
v -5 2 -0
v -5 3 -0
v -4 1 -0
v -4 2 -0
v -1 2 -0
v -1 3 -0
v -1 6 -0
v 0 2 -0
v 0 3 -0
v 0 6 -0
v 3 1 -0
v 3 2 -0
v 4 1 -0
v 4 2 -0
v 4 3 -0
v -1 1 -3
v -1 2 -3
v 0 1 -3
v 0 2 -3
v -12 12 -6
v -12 13 -6
v 12 12 -6
v 12 13 -6
v -5 13 -7
v -5 14 -7
v 3 13 -7
v 3 14 -7
v -10 1 -8
v -10 12 -8
v -9 1 -8
v -9 12 -8
v 5 13 -8
v 5 14 -8
v 7 13 -8
v 7 14 -8
v 9 1 -8
v 9 12 -8
v 10 1 -8
v 10 12 -8
v -10 13 -10
v -10 20 -10
v -9 14 -10
v -9 15 -10
v -8 18 -10
v -8 19 -10
v -7 14 -10
v -7 15 -10
v -7 18 -10
v -7 19 -10
v -6 13 -10
v -6 20 -10
v -4 15 -14
v -4 20 -14
v -3 13 -14
v -3 14 -14
v -3 16 -14
v -3 19 -14
v 2 13 -14
v 2 14 -14
v 2 16 -14
v 2 19 -14
v 3 15 -14
v 3 20 -14
v -2 14 -15
v -2 15 -15
v 1 14 -15
v 1 15 -15
v -10 1 -16
v -10 12 -16
v -9 1 -16
v -9 12 -16
v 9 1 -16
v 9 12 -16
v 10 1 -16
v 10 12 -16
v -20 1 -19
v -20 40 -19
v -12 12 -19
v -12 13 -19
v 12 12 -19
v 12 13 -19
v 20 1 -19
v 20 40 -19
v -3 8 2
v -3 16 2
v -1 1 2
v -1 2 2
v 0 1 2
v 0 2 2
v 3 8 2
v 3 16 2
v -5 1 -1
v -5 2 -1
v -5 3 -1
v -4 1 -1
v -4 2 -1
v -1 2 -1
v -1 3 -1
v -1 6 -1
v 0 2 -1
v 0 3 -1
v 0 6 -1
v 3 1 -1
v 3 2 -1
v 4 1 -1
v 4 2 -1
v 4 3 -1
v -3 6 -4
v -3 7 -4
v -3 8 -4
v -1 1 -4
v -1 2 -4
v -1 3 -4
v 0 1 -4
v 0 2 -4
v 0 3 -4
v 3 6 -4
v 3 7 -4
v 3 8 -4
v -10 1 -9
v -10 12 -9
v -9 1 -9
v -9 12 -9
v 9 1 -9
v 9 12 -9
v 10 1 -9
v 10 12 -9
v -5 13 -11
v -5 14 -11
v 3 13 -11
v 3 14 -11
v 5 13 -11
v 5 14 -11
v 6 13 -11
v 6 14 -11
v 7 13 -11
v 7 14 -11
v -4 15 -15
v -4 20 -15
v -3 16 -15
v -3 19 -15
v -2 15 -15
v -2 16 -15
v -2 19 -15
v 1 15 -15
v 1 16 -15
v 1 19 -15
v 2 16 -15
v 2 19 -15
v 3 15 -15
v 3 20 -15
v -2 14 -16
v -2 19 -16
v 1 14 -16
v 1 19 -16
v -10 1 -17
v -10 12 -17
v -9 1 -17
v -9 12 -17
v -3 13 -17
v -3 14 -17
v 2 13 -17
v 2 14 -17
v 9 1 -17
v 9 12 -17
v 10 1 -17
v 10 12 -17
v -10 13 -18
v -10 20 -18
v -6 13 -18
v -6 20 -18
v -20 0 -20
v -20 1 -20
v -20 40 -20
v 20 0 -20
v 20 1 -20
v 20 40 -20
v -20 0 20
v 20 0 20
v -20 0 -20
v 20 0 -20
v -1 2 2
v 0 2 2
v -4 2 -0
v -1 2 -0
v 0 2 -0
v 3 2 -0
v -4 2 -1
v -1 2 -1
v 0 2 -1
v 3 2 -1
v -1 2 -3
v 0 2 -3
v -3 6 4
v 3 6 4
v -1 6 -0
v 0 6 -0
v -1 6 -1
v 0 6 -1
v -3 6 -4
v 3 6 -4
v -12 12 -6
v 12 12 -6
v -3 12 -7
v 3 12 -7
v -10 12 -8
v -9 12 -8
v 9 12 -8
v 10 12 -8
v -10 12 -9
v -9 12 -9
v 9 12 -9
v 10 12 -9
v -7 12 -10
v -6 12 -10
v 6 12 -10
v 7 12 -10
v -7 12 -11
v -6 12 -11
v -3 12 -11
v 3 12 -11
v 6 12 -11
v 7 12 -11
v -2 12 -14
v 2 12 -14
v -10 12 -16
v -9 12 -16
v 9 12 -16
v 10 12 -16
v -10 12 -17
v -9 12 -17
v -2 12 -17
v 2 12 -17
v 9 12 -17
v 10 12 -17
v -12 12 -19
v 12 12 -19
v -4 15 -14
v 3 15 -14
v -4 15 -15
v -2 15 -15
v 1 15 -15
v 3 15 -15
v -20 1 20
v 20 1 20
v -1 1 3
v 0 1 3
v -1 1 2
v 0 1 2
v -5 1 -0
v -4 1 -0
v 3 1 -0
v 4 1 -0
v -5 1 -1
v -4 1 -1
v 3 1 -1
v 4 1 -1
v -1 1 -3
v 0 1 -3
v -1 1 -4
v 0 1 -4
v -10 1 -8
v -9 1 -8
v 9 1 -8
v 10 1 -8
v -10 1 -9
v -9 1 -9
v 9 1 -9
v 10 1 -9
v -10 1 -16
v -9 1 -16
v 9 1 -16
v 10 1 -16
v -10 1 -17
v -9 1 -17
v 9 1 -17
v 10 1 -17
v -20 1 -19
v 20 1 -19
v -1 3 3
v 0 3 3
v -5 3 -0
v -1 3 -0
v 0 3 -0
v 4 3 -0
v -5 3 -1
v -1 3 -1
v 0 3 -1
v 4 3 -1
v -1 3 -4
v 0 3 -4
v -3 8 2
v 3 8 2
v -3 8 -4
v 3 8 -4
v -12 13 -6
v 12 13 -6
v -5 13 -7
v 3 13 -7
v 5 13 -8
v 7 13 -8
v -10 13 -10
v -6 13 -10
v -5 13 -10
v 3 13 -10
v 5 13 -10
v 7 13 -10
v -10 13 -11
v -6 13 -11
v -5 13 -11
v 3 13 -11
v 5 13 -11
v 6 13 -11
v 7 13 -11
v -3 13 -14
v 2 13 -14
v -3 13 -17
v 2 13 -17
v -10 13 -18
v -6 13 -18
v -12 13 -19
v 12 13 -19
v -5 14 -7
v 3 14 -7
v -4 14 -8
v -3 14 -8
v -2 14 -8
v -1 14 -8
v 0 14 -8
v 1 14 -8
v 2 14 -8
v 5 14 -8
v 7 14 -8
v -4 14 -9
v -3 14 -9
v -2 14 -9
v -1 14 -9
v 0 14 -9
v 1 14 -9
v 2 14 -9
v -5 14 -10
v -4 14 -10
v -3 14 -10
v -2 14 -10
v -1 14 -10
v 0 14 -10
v 1 14 -10
v 2 14 -10
v 3 14 -10
v 5 14 -10
v 6 14 -10
v 7 14 -10
v -5 14 -11
v 3 14 -11
v 5 14 -11
v 6 14 -11
v 7 14 -11
v -3 14 -14
v 2 14 -14
v -2 14 -15
v 1 14 -15
v -2 14 -16
v 1 14 -16
v -3 14 -17
v 2 14 -17
v -3 16 4
v 3 16 4
v -3 16 3
v 3 16 3
v -3 16 2
v 3 16 2
v -2 19 -15
v 1 19 -15
v -2 19 -16
v 1 19 -16
v -10 20 -10
v -6 20 -10
v -10 20 -11
v -6 20 -11
v -4 20 -14
v 3 20 -14
v -4 20 -15
v 3 20 -15
v -10 20 -18
v -6 20 -18
v -20 40 -19
v 20 40 -19
v -20 40 -20
v 20 40 -20

# faces
f 3/1/1 2/1/1 1/1/1
f 4/1/1 2/1/1 3/1/1
f 5/1/1 2/1/1 4/1/1
f 6/2/1 5/2/1 4/2/1
f 7/2/1 5/2/1 6/2/1
f 10/8/1 9/8/1 8/8/1
f 11/8/1 9/8/1 10/8/1
f 16/12/1 13/12/1 12/12/1
f 17/12/1 13/12/1 16/12/1
f 18/12/1 15/12/1 14/12/1
f 19/12/1 15/12/1 18/12/1
f 23/14/1 21/14/1 20/14/1
f 24/9/1 22/9/1 21/9/1
f 24/14/1 21/14/1 23/14/1
f 25/9/1 22/9/1 24/9/1
f 28/9/1 27/9/1 26/9/1
f 29/9/1 27/9/1 28/9/1
f 30/13/1 29/13/1 28/13/1
f 31/13/1 29/13/1 30/13/1
f 35/3/1 33/3/1 32/3/1
f 36/9/1 34/9/1 33/9/1
f 36/3/1 33/3/1 35/3/1
f 37/9/1 34/9/1 36/9/1
f 40/14/1 39/14/1 38/14/1
f 41/14/1 39/14/1 40/14/1
f 44/14/1 43/14/1 42/14/1
f 45/14/1 43/14/1 44/14/1
f 46/4/1 45/4/1 44/4/1
f 47/4/1 45/4/1 46/4/1
f 50/9/1 49/9/1 48/9/1
f 51/9/1 49/9/1 50/9/1
f 52/14/1 44/14/1 42/14/1
f 53/4/1 46/4/1 44/4/1
f 53/14/1 44/14/1 52/14/1
f 54/4/1 46/4/1 53/4/1
f 57/9/1 56/9/1 55/9/1
f 58/9/1 56/9/1 57/9/1
f 59/9/1 56/9/1 58/9/1
f 60/9/1 56/9/1 59/9/1
f 65/9/1 62/9/1 61/9/1
f 66/9/1 62/9/1 65/9/1
f 69/9/1 64/9/1 63/9/1
f 70/9/1 64/9/1 69/9/1
f 71/13/1 67/13/1 66/13/1
f 71/13/1 66/13/1 65/13/1
f 72/13/1 67/13/1 71/13/1
f 73/13/1 70/13/1 69/13/1
f 73/13/1 69/13/1 68/13/1
f 74/13/1 70/13/1 73/13/1
f 75/13/1 73/13/1 72/13/1
f 76/13/1 73/13/1 75/13/1
f 79/9/1 78/9/1 77/9/1
f 80/9/1 78/9/1 79/9/1
f 84/10/1 82/10/1 81/10/1
f 85/14/1 83/14/1 82/14/1
f 85/10/1 82/10/1 84/10/1
f 86/14/1 83/14/1 85/14/1
f 91/12/1 88/12/1 87/12/1
f 92/12/1 88/12/1 91/12/1
f 93/12/1 90/12/1 89/12/1
f 94/12/1 90/12/1 93/12/1
f 95/12/2 96/12/2 99/12/2
f 99/12/2 96/12/2 100/12/2
f 97/12/2 98/12/2 101/12/2
f 101/12/2 98/12/2 102/12/2
f 103/14/2 104/14/2 106/14/2
f 104/9/2 105/9/2 107/9/2
f 106/14/2 104/14/2 107/14/2
f 107/9/2 105/9/2 108/9/2
f 109/9/2 110/9/2 111/9/2
f 111/9/2 110/9/2 112/9/2
f 113/9/2 114/9/2 117/9/2
f 117/9/2 114/9/2 118/9/2
f 115/9/2 116/9/2 121/9/2
f 121/9/2 116/9/2 122/9/2
f 118/13/2 119/13/2 123/13/2
f 117/13/2 118/13/2 123/13/2
f 123/13/2 119/13/2 124/13/2
f 121/13/2 122/13/2 125/13/2
f 120/13/2 121/13/2 125/13/2
f 125/13/2 122/13/2 126/13/2
f 124/13/2 125/13/2 127/13/2
f 127/13/2 125/13/2 128/13/2
f 129/9/2 130/9/2 131/9/2
f 131/9/2 130/9/2 132/9/2
f 132/9/2 130/9/2 133/9/2
f 133/9/2 130/9/2 134/9/2
f 135/9/2 136/9/2 137/9/2
f 137/9/2 136/9/2 138/9/2
f 139/14/2 140/14/2 141/14/2
f 141/14/2 140/14/2 142/14/2
f 141/4/2 142/4/2 143/4/2
f 143/4/2 142/4/2 144/4/2
f 145/3/2 146/3/2 148/3/2
f 146/9/2 147/9/2 149/9/2
f 148/3/2 146/3/2 149/3/2
f 149/9/2 147/9/2 150/9/2
f 139/14/2 141/14/2 153/14/2
f 141/4/2 143/4/2 154/4/2
f 153/14/2 141/14/2 154/14/2
f 154/4/2 143/4/2 155/4/2
f 151/14/2 152/14/2 156/14/2
f 156/14/2 152/14/2 157/14/2
f 158/9/2 159/9/2 160/9/2
f 160/9/2 159/9/2 161/9/2
f 160/13/2 161/13/2 162/13/2
f 162/13/2 161/13/2 163/13/2
f 164/10/2 165/10/2 167/10/2
f 165/13/2 166/13/2 168/13/2
f 167/10/2 165/10/2 168/10/2
f 168/13/2 166/13/2 169/13/2
f 170/12/2 171/12/2 174/12/2
f 174/12/2 171/12/2 175/12/2
f 172/12/2 173/12/2 176/12/2
f 176/12/2 173/12/2 177/12/2
f 178/8/2 179/8/2 180/8/2
f 180/8/2 179/8/2 181/8/2
f 182/1/2 183/1/2 184/1/2
f 184/1/2 183/1/2 185/1/2
f 185/1/2 183/1/2 186/1/2
f 185/2/2 186/2/2 187/2/2
f 187/2/2 186/2/2 188/2/2
f 191/1/3 190/1/3 189/1/3
f 192/1/3 190/1/3 191/1/3
f 195/14/3 194/14/3 193/14/3
f 196/14/3 194/14/3 195/14/3
f 200/9/3 198/9/3 197/9/3
f 201/13/3 199/13/3 198/13/3
f 201/9/3 198/9/3 200/9/3
f 202/13/3 199/13/3 201/13/3
f 206/9/3 204/9/3 203/9/3
f 207/13/3 205/13/3 204/13/3
f 207/9/3 204/9/3 206/9/3
f 208/13/3 205/13/3 207/13/3
f 209/13/3 205/13/3 208/13/3
f 212/13/3 210/13/3 209/13/3
f 213/13/3 210/13/3 212/13/3
f 215/13/3 212/13/3 211/13/3
f 216/9/3 215/9/3 214/9/3
f 217/13/3 212/13/3 215/13/3
f 217/9/3 215/9/3 216/9/3
f 218/13/3 212/13/3 217/13/3
f 221/9/3 220/9/3 219/9/3
f 222/9/3 220/9/3 221/9/3
f 225/8/3 224/8/3 223/8/3
f 226/8/3 224/8/3 225/8/3
f 229/3/3 228/3/3 227/3/3
f 230/3/3 228/3/3 229/3/3
f 233/12/3 232/12/3 231/12/3
f 234/12/3 232/12/3 233/12/3
f 237/10/3 236/10/3 235/10/3
f 238/10/3 236/10/3 237/10/3
f 241/12/3 240/12/3 239/12/3
f 242/12/3 240/12/3 241/12/3
f 245/14/3 244/14/3 243/14/3
f 246/14/3 244/14/3 245/14/3
f 247/14/3 244/14/3 246/14/3
f 248/14/3 244/14/3 247/14/3
f 249/14/3 245/14/3 243/14/3
f 249/10/3 246/10/3 245/10/3
f 250/14/3 247/14/3 246/14/3
f 250/10/3 246/10/3 249/10/3
f 251/6/3 248/6/3 247/6/3
f 251/14/3 247/14/3 250/14/3
f 252/14/3 244/14/3 248/14/3
f 252/6/3 248/6/3 251/6/3
f 253/14/3 251/14/3 250/14/3
f 253/14/3 250/14/3 249/14/3
f 253/14/3 252/14/3 251/14/3
f 253/14/3 249/14/3 243/14/3
f 254/14/3 244/14/3 252/14/3
f 254/14/3 252/14/3 253/14/3
f 259/14/3 256/14/3 255/14/3
f 260/14/3 256/14/3 259/14/3
f 261/9/3 258/9/3 257/9/3
f 262/9/3 258/9/3 261/9/3
f 263/14/3 259/14/3 255/14/3
f 263/5/3 260/5/3 259/5/3
f 264/14/3 256/14/3 260/14/3
f 264/5/3 260/5/3 263/5/3
f 265/14/3 263/14/3 255/14/3
f 265/14/3 264/14/3 263/14/3
f 266/14/3 256/14/3 264/14/3
f 266/14/3 264/14/3 265/14/3
f 269/9/3 268/9/3 267/9/3
f 270/9/3 268/9/3 269/9/3
f 273/12/3 272/12/3 271/12/3
f 274/12/3 272/12/3 273/12/3
f 277/12/3 276/12/3 275/12/3
f 278/12/3 276/12/3 277/12/3
f 281/2/3 280/2/3 279/2/3
f 282/2/3 280/2/3 281/2/3
f 283/2/3 281/2/3 279/2/3
f 284/2/3 280/2/3 282/2/3
f 285/2/3 283/2/3 279/2/3
f 285/2/3 284/2/3 283/2/3
f 286/2/3 280/2/3 284/2/3
f 286/2/3 284/2/3 285/2/3
f 289/9/4 290/9/4 291/9/4
f 291/9/4 290/9/4 292/9/4
f 287/4/4 288/4/4 293/4/4
f 293/4/4 288/4/4 294/4/4
f 295/9/4 296/9/4 298/9/4
f 296/13/4 297/13/4 299/13/4
f 298/9/4 296/9/4 299/9/4
f 299/13/4 297/13/4 300/13/4
f 300/13/4 297/13/4 301/13/4
f 301/13/4 302/13/4 304/13/4
f 304/13/4 302/13/4 305/13/4
f 303/13/4 304/13/4 307/13/4
f 306/9/4 307/9/4 308/9/4
f 307/13/4 304/13/4 309/13/4
f 308/9/4 307/9/4 309/9/4
f 309/13/4 304/13/4 310/13/4
f 314/9/4 315/9/4 317/9/4
f 315/13/4 316/13/4 318/13/4
f 317/9/4 315/9/4 318/9/4
f 318/13/4 316/13/4 319/13/4
f 311/14/4 312/14/4 320/14/4
f 312/4/4 313/4/4 321/4/4
f 320/14/4 312/14/4 321/14/4
f 321/4/4 313/4/4 322/4/4
f 323/12/4 324/12/4 325/12/4
f 325/12/4 324/12/4 326/12/4
f 327/12/4 328/12/4 329/12/4
f 329/12/4 328/12/4 330/12/4
f 331/9/4 332/9/4 333/9/4
f 333/9/4 332/9/4 334/9/4
f 335/14/4 336/14/4 337/14/4
f 337/14/4 336/14/4 338/14/4
f 337/13/4 338/13/4 339/13/4
f 339/13/4 338/13/4 340/13/4
f 341/14/4 342/14/4 343/14/4
f 343/14/4 342/14/4 344/14/4
f 341/14/4 343/14/4 345/14/4
f 343/5/4 344/5/4 346/5/4
f 345/14/4 343/14/4 346/14/4
f 344/14/4 342/14/4 347/14/4
f 346/5/4 344/5/4 347/5/4
f 347/14/4 342/14/4 350/14/4
f 348/14/4 349/14/4 351/14/4
f 349/5/4 350/5/4 351/5/4
f 350/14/4 342/14/4 352/14/4
f 351/5/4 350/5/4 352/5/4
f 348/14/4 351/14/4 353/14/4
f 351/14/4 352/14/4 353/14/4
f 352/14/4 342/14/4 354/14/4
f 353/14/4 352/14/4 354/14/4
f 355/9/4 356/9/4 357/9/4
f 357/9/4 356/9/4 358/9/4
f 359/12/4 360/12/4 361/12/4
f 361/12/4 360/12/4 362/12/4
f 363/9/4 364/9/4 365/9/4
f 365/9/4 364/9/4 366/9/4
f 367/12/4 368/12/4 369/12/4
f 369/12/4 368/12/4 370/12/4
f 371/9/4 372/9/4 373/9/4
f 373/9/4 372/9/4 374/9/4
f 375/1/4 376/1/4 378/1/4
f 376/2/4 377/2/4 379/2/4
f 378/1/4 376/1/4 379/1/4
f 379/2/4 377/2/4 380/2/4
f 383/1/5 382/1/5 381/1/5
f 384/1/5 382/1/5 383/1/5
f 388/13/5 386/13/5 385/13/5
f 389/13/5 386/13/5 388/13/5
f 391/13/5 388/13/5 387/13/5
f 391/13/5 390/13/5 389/13/5
f 391/13/5 389/13/5 388/13/5
f 392/13/5 390/13/5 391/13/5
f 393/13/5 390/13/5 392/13/5
f 394/13/5 390/13/5 393/13/5
f 395/13/5 393/13/5 392/13/5
f 396/13/5 393/13/5 395/13/5
f 399/14/5 398/14/5 397/14/5
f 400/14/5 398/14/5 399/14/5
f 401/14/5 399/14/5 397/14/5
f 402/14/5 398/14/5 400/14/5
f 403/14/5 401/14/5 397/14/5
f 403/14/5 402/14/5 401/14/5
f 404/14/5 398/14/5 402/14/5
f 404/14/5 402/14/5 403/14/5
f 407/8/5 406/8/5 405/8/5
f 408/8/5 406/8/5 407/8/5
f 409/8/5 407/8/5 405/8/5
f 410/8/5 407/8/5 409/8/5
f 411/8/5 406/8/5 408/8/5
f 412/8/5 406/8/5 411/8/5
f 413/8/5 409/8/5 405/8/5
f 414/8/5 407/8/5 410/8/5
f 415/8/5 411/8/5 408/8/5
f 416/8/5 406/8/5 412/8/5
f 417/8/5 414/8/5 413/8/5
f 417/8/5 407/8/5 414/8/5
f 418/8/5 407/8/5 417/8/5
f 419/8/5 415/8/5 408/8/5
f 419/8/5 416/8/5 415/8/5
f 420/8/5 416/8/5 419/8/5
f 421/7/5 418/7/5 417/7/5
f 421/8/5 417/8/5 413/8/5
f 422/8/5 407/8/5 418/8/5
f 422/7/5 418/7/5 421/7/5
f 423/7/5 408/7/5 407/7/5
f 423/8/5 407/8/5 422/8/5
f 424/8/5 419/8/5 408/8/5
f 424/7/5 408/7/5 423/7/5
f 425/7/5 420/7/5 419/7/5
f 425/8/5 419/8/5 424/8/5
f 426/8/5 416/8/5 420/8/5
f 426/7/5 420/7/5 425/7/5
f 427/8/5 422/8/5 421/8/5
f 427/8/5 425/8/5 424/8/5
f 427/8/5 426/8/5 425/8/5
f 427/8/5 423/8/5 422/8/5
f 427/8/5 424/8/5 423/8/5
f 428/8/5 426/8/5 427/8/5
f 429/8/5 413/8/5 405/8/5
f 429/8/5 421/8/5 413/8/5
f 429/8/5 427/8/5 421/8/5
f 430/8/5 427/8/5 429/8/5
f 431/8/5 426/8/5 428/8/5
f 431/8/5 416/8/5 426/8/5
f 432/8/5 406/8/5 416/8/5
f 432/8/5 416/8/5 431/8/5
f 433/8/5 429/8/5 405/8/5
f 434/8/5 427/8/5 430/8/5
f 435/7/5 428/7/5 427/7/5
f 435/8/5 427/8/5 434/8/5
f 436/8/5 431/8/5 428/8/5
f 436/7/5 428/7/5 435/7/5
f 437/8/5 431/8/5 436/8/5
f 438/8/5 406/8/5 432/8/5
f 439/8/5 433/8/5 405/8/5
f 439/8/5 438/8/5 437/8/5
f 439/8/5 437/8/5 436/8/5
f 439/8/5 434/8/5 433/8/5
f 439/8/5 436/8/5 435/8/5
f 439/8/5 435/8/5 434/8/5
f 440/8/5 406/8/5 438/8/5
f 440/8/5 438/8/5 439/8/5
f 443/14/5 442/14/5 441/14/5
f 444/14/5 442/14/5 443/14/5
f 445/14/5 442/14/5 444/14/5
f 446/14/5 442/14/5 445/14/5
f 447/1/6 448/1/6 449/1/6
f 449/1/6 448/1/6 450/1/6
f 447/1/6 449/1/6 451/1/6
f 450/1/6 448/1/6 452/1/6
f 447/1/6 451/1/6 453/1/6
f 451/1/6 452/1/6 453/1/6
f 453/1/6 452/1/6 454/1/6
f 452/1/6 448/1/6 455/1/6
f 454/1/6 452/1/6 455/1/6
f 455/1/6 448/1/6 456/1/6
f 447/1/6 453/1/6 457/1/6
f 454/1/6 455/1/6 458/1/6
f 458/1/6 455/1/6 459/1/6
f 456/1/6 448/1/6 460/1/6
f 458/1/6 459/1/6 461/1/6
f 459/1/6 460/1/6 461/1/6
f 457/1/6 458/1/6 461/1/6
f 461/1/6 460/1/6 462/1/6
f 457/1/6 461/1/6 463/1/6
f 462/1/6 460/1/6 464/1/6
f 447/1/6 457/1/6 465/1/6
f 463/1/6 464/1/6 465/1/6
f 457/1/6 463/1/6 465/1/6
f 465/1/6 464/1/6 466/1/6
f 460/1/6 448/1/6 467/1/6
f 466/1/6 464/1/6 467/1/6
f 464/1/6 460/1/6 467/1/6
f 467/1/6 448/1/6 468/1/6
f 447/1/6 465/1/6 469/1/6
f 466/1/6 467/1/6 470/1/6
f 470/1/6 467/1/6 471/1/6
f 468/1/6 448/1/6 472/1/6
f 470/1/6 471/1/6 473/1/6
f 471/1/6 472/1/6 473/1/6
f 447/1/6 469/1/6 473/1/6
f 469/1/6 470/1/6 473/1/6
f 473/1/6 472/1/6 474/1/6
f 474/1/6 472/1/6 475/1/6
f 472/1/6 448/1/6 476/1/6
f 475/1/6 472/1/6 476/1/6
f 447/1/6 473/1/6 477/1/6
f 474/1/6 475/1/6 478/1/6
f 478/1/6 475/1/6 479/1/6
f 476/1/6 448/1/6 480/1/6
f 447/1/6 477/1/6 481/1/6
f 479/1/6 480/1/6 481/1/6
f 478/1/6 479/1/6 481/1/6
f 477/1/6 478/1/6 481/1/6
f 480/1/6 448/1/6 482/1/6
f 481/1/6 480/1/6 482/1/6
f 483/13/6 484/13/6 486/13/6
f 486/13/6 484/13/6 487/13/6
f 485/13/6 486/13/6 489/13/6
f 489/13/6 486/13/6 490/13/6
f 487/13/6 488/13/6 491/13/6
f 491/13/6 488/13/6 492/13/6
f 490/13/6 491/13/6 493/13/6
f 493/13/6 491/13/6 494/13/6
f 495/4/6 496/4/6 497/4/6
f 497/4/6 496/4/6 498/4/6
f 499/8/6 500/8/6 501/8/6
f 501/8/6 500/8/6 502/8/6
f 502/8/6 500/8/6 503/8/6
f 503/8/6 500/8/6 504/8/6
f 499/8/6 501/8/6 505/8/6
f 505/8/6 501/8/6 506/8/6
f 506/8/6 501/8/6 507/8/6
f 502/8/6 503/8/6 508/8/6
f 508/8/6 503/8/6 509/8/6
f 504/8/6 500/8/6 510/8/6
f 499/8/6 505/8/6 511/8/6
f 506/8/6 507/8/6 512/8/6
f 512/8/6 507/8/6 513/8/6
f 508/8/6 509/8/6 514/8/6
f 514/8/6 509/8/6 515/8/6
f 510/8/6 500/8/6 517/8/6
f 512/8/6 513/8/6 518/8/6
f 516/8/6 517/8/6 518/8/6
f 515/8/6 516/8/6 518/8/6
f 513/8/6 514/8/6 518/8/6
f 514/8/6 515/8/6 518/8/6
f 518/8/6 517/8/6 519/8/6
f 512/8/6 518/8/6 520/8/6
f 519/8/6 517/8/6 521/8/6
f 499/8/6 511/8/6 522/8/6
f 520/8/6 521/8/6 523/8/6
f 512/8/6 520/8/6 523/8/6
f 499/8/6 522/8/6 524/8/6
f 522/8/6 523/8/6 524/8/6
f 517/8/6 500/8/6 525/8/6
f 524/8/6 523/8/6 525/8/6
f 523/8/6 521/8/6 525/8/6
f 521/8/6 517/8/6 525/8/6
f 526/3/6 527/3/6 528/3/6
f 528/3/6 527/3/6 529/3/6
f 529/3/6 527/3/6 530/3/6
f 530/3/6 527/3/6 531/3/6
f 531/3/6 527/3/6 532/3/6
f 532/3/6 527/3/6 533/3/6
f 533/3/6 527/3/6 534/3/6
f 526/3/6 528/3/6 537/3/6
f 528/13/6 529/13/6 537/13/6
f 529/11/6 530/11/6 538/11/6
f 537/13/6 529/13/6 538/13/6
f 530/13/6 531/13/6 539/13/6
f 538/11/6 530/11/6 539/11/6
f 531/11/6 532/11/6 540/11/6
f 539/13/6 531/13/6 540/13/6
f 532/13/6 533/13/6 541/13/6
f 540/11/6 532/11/6 541/11/6
f 533/11/6 534/11/6 542/11/6
f 541/13/6 533/13/6 542/13/6
f 534/3/6 527/3/6 543/3/6
f 542/11/6 534/11/6 543/11/6
f 526/3/6 537/3/6 544/3/6
f 537/11/6 538/11/6 545/11/6
f 544/3/6 537/3/6 545/3/6
f 538/13/6 539/13/6 546/13/6
f 545/11/6 538/11/6 546/11/6
f 539/11/6 540/11/6 547/11/6
f 546/13/6 539/13/6 547/13/6
f 540/13/6 541/13/6 548/13/6
f 547/11/6 540/11/6 548/11/6
f 541/11/6 542/11/6 549/11/6
f 548/13/6 541/13/6 549/13/6
f 542/13/6 543/13/6 550/13/6
f 549/11/6 542/11/6 550/11/6
f 543/3/6 527/3/6 551/3/6
f 550/13/6 543/13/6 551/13/6
f 551/3/6 527/3/6 552/3/6
f 535/10/6 536/10/6 553/10/6
f 553/10/6 536/10/6 554/10/6
f 554/10/6 536/10/6 555/10/6
f 551/9/6 552/9/6 556/9/6
f 547/9/6 548/9/6 556/9/6
f 549/9/6 550/9/6 556/9/6
f 544/9/6 545/9/6 556/9/6
f 545/9/6 546/9/6 556/9/6
f 550/9/6 551/9/6 556/9/6
f 548/9/6 549/9/6 556/9/6
f 546/9/6 547/9/6 556/9/6
f 556/9/6 552/9/6 557/9/6
f 553/14/6 554/14/6 558/14/6
f 554/13/6 555/13/6 559/13/6
f 558/14/6 554/14/6 559/14/6
f 559/13/6 555/13/6 560/13/6
f 561/9/6 562/9/6 563/9/6
f 563/9/6 562/9/6 564/9/6
f 561/9/6 563/9/6 565/9/6
f 564/9/6 562/9/6 566/9/6
f 561/9/6 565/9/6 567/9/6
f 565/9/6 566/9/6 567/9/6
f 566/9/6 562/9/6 568/9/6
f 567/9/6 566/9/6 568/9/6
f 569/14/6 570/14/6 571/14/6
f 571/14/6 570/14/6 572/14/6
f 571/4/6 572/4/6 573/4/6
f 573/4/6 572/4/6 574/4/6
f 575/9/6 576/9/6 577/9/6
f 577/9/6 576/9/6 578/9/6
f 579/14/6 580/14/6 581/14/6
f 581/14/6 580/14/6 582/14/6
f 583/14/6 584/14/6 585/14/6
f 585/14/6 584/14/6 586/14/6
f 581/9/6 582/9/6 587/9/6
f 587/9/6 582/9/6 588/9/6
f 589/2/6 590/2/6 591/2/6
f 591/2/6 590/2/6 592/2/6
