# MagicaVoxel @ Ephtracy

# material
mtllib haskell.mtl
usemtl palette

# normals
vn -1 0 0
vn 1 0 0
vn 0 0 1
vn 0 0 -1
vn 0 -1 0
vn 0 1 0

# texcoords
vt 0.0136719 0.5
vt 0.0527344 0.5
vt 0.0605469 0.5
vt 0.189453 0.5
vt 0.283203 0.5
vt 0.400391 0.5
vt 0.466797 0.5
vt 0.501953 0.5
vt 0.505859 0.5
vt 0.693359 0.5
vt 0.783203 0.5
vt 0.927734 0.5
vt 0.939453 0.5
vt 0.970703 0.5

# verts
v -4 9 0.5
v -4 9 -1.5
v -4 10 0.5
v -4 10 -1.5
v -4 16 0.5
v -4 16 -1.5
v -4 17 2.5
v -4 17 0.5
v -4 19 2.5
v -4 19 0.5
v -4 21 1.5
v -4 21 -1.5
v -4 22 1.5
v -4 22 -1.5
v -3 0 1.5
v -3 0 -1.5
v -3 1 1.5
v -3 1 0.5
v -3 1 -1.5
v -3 8 1.5
v -3 8 0.5
v -3 8 -1.5
v -3 8 -2.5
v -3 9 1.5
v -3 9 0.5
v -3 9 -1.5
v -3 9 -2.5
v -3 10 0.5
v -3 10 -1.5
v -3 16 1.5
v -3 16 0.5
v -3 16 -1.5
v -3 16 -2.5
v -3 17 0.5
v -3 17 -1.5
v -3 19 1.5
v -3 19 0.5
v -3 21 2.5
v -3 21 1.5
v -3 21 -1.5
v -3 21 -2.5
v -3 22 2.5
v -3 22 1.5
v -3 22 -1.5
v -3 22 -2.5
v -3 23 1.5
v -3 23 -1.5
v -2 16 2.5
v -2 16 1.5
v -2 17 2.5
v -2 17 1.5
v -2 23 1.5
v -2 23 -1.5
v -2 24 1.5
v -2 24 -1.5
v -1 15 2.5
v -1 15 1.5
v -1 16 2.5
v -1 16 1.5
v -1 16 0.5
v -1 16 -1.5
v -1 17 0.5
v -1 17 -1.5
v -1 24 1.5
v -1 24 -1.5
v -1 25 1.5
v -1 25 -1.5
v 1 0 1.5
v 1 0 -1.5
v 1 1 1.5
v 1 1 0.5
v 1 1 -1.5
v 1 8 0.5
v 1 8 -1.5
v 1 17 2.5
v 1 17 1.5
v 1 18 2.5
v 1 18 1.5
v -1 0 1.5
v -1 0 -1.5
v -1 1 1.5
v -1 1 0.5
v -1 1 -1.5
v -1 8 0.5
v -1 8 -1.5
v -1 17 2.5
v -1 17 1.5
v -1 18 2.5
v -1 18 1.5
v 1 15 2.5
v 1 15 1.5
v 1 16 2.5
v 1 16 1.5
v 1 16 0.5
v 1 16 -1.5
v 1 17 0.5
v 1 17 -1.5
v 1 24 1.5
v 1 24 -1.5
v 1 25 1.5
v 1 25 -1.5
v 2 16 2.5
v 2 16 1.5
v 2 17 2.5
v 2 17 1.5
v 2 23 1.5
v 2 23 -1.5
v 2 24 1.5
v 2 24 -1.5
v 3 0 1.5
v 3 0 -1.5
v 3 1 1.5
v 3 1 0.5
v 3 1 -1.5
v 3 8 1.5
v 3 8 0.5
v 3 8 -1.5
v 3 8 -2.5
v 3 9 1.5
v 3 9 0.5
v 3 9 -1.5
v 3 9 -2.5
v 3 10 0.5
v 3 10 -1.5
v 3 16 1.5
v 3 16 0.5
v 3 16 -1.5
v 3 16 -2.5
v 3 17 0.5
v 3 17 -1.5
v 3 19 1.5
v 3 19 0.5
v 3 21 2.5
v 3 21 1.5
v 3 21 -1.5
v 3 21 -2.5
v 3 22 2.5
v 3 22 1.5
v 3 22 -1.5
v 3 22 -2.5
v 3 23 1.5
v 3 23 -1.5
v 4 9 0.5
v 4 9 -1.5
v 4 10 0.5
v 4 10 -1.5
v 4 16 0.5
v 4 16 -1.5
v 4 17 2.5
v 4 17 0.5
v 4 19 2.5
v 4 19 0.5
v 4 21 1.5
v 4 21 -1.5
v 4 22 1.5
v 4 22 -1.5
v -4 17 2.5
v -4 19 2.5
v -3 21 2.5
v -3 22 2.5
v -2 16 2.5
v -2 17 2.5
v -1 15 2.5
v -1 16 2.5
v -1 17 2.5
v -1 18 2.5
v -1 21 2.5
v -1 22 2.5
v 1 15 2.5
v 1 16 2.5
v 1 17 2.5
v 1 18 2.5
v 1 21 2.5
v 1 22 2.5
v 2 16 2.5
v 2 17 2.5
v 3 21 2.5
v 3 22 2.5
v 4 17 2.5
v 4 19 2.5
v -4 21 1.5
v -4 22 1.5
v -3 0 1.5
v -3 1 1.5
v -3 8 1.5
v -3 9 1.5
v -3 16 1.5
v -3 19 1.5
v -3 21 1.5
v -3 22 1.5
v -3 23 1.5
v -2 11 1.5
v -2 14 1.5
v -2 16 1.5
v -2 20 1.5
v -2 21 1.5
v -2 23 1.5
v -2 24 1.5
v -1 0 1.5
v -1 1 1.5
v -1 11 1.5
v -1 12 1.5
v -1 13 1.5
v -1 14 1.5
v -1 15 1.5
v -1 16 1.5
v -1 17 1.5
v -1 18 1.5
v -1 20 1.5
v -1 21 1.5
v -1 22 1.5
v -1 24 1.5
v -1 25 1.5
v 0 11 1.5
v 0 12 1.5
v 0 13 1.5
v 0 14 1.5
v 1 0 1.5
v 1 1 1.5
v 1 11 1.5
v 1 14 1.5
v 1 15 1.5
v 1 16 1.5
v 1 17 1.5
v 1 18 1.5
v 1 20 1.5
v 1 21 1.5
v 1 22 1.5
v 1 24 1.5
v 1 25 1.5
v 2 16 1.5
v 2 20 1.5
v 2 21 1.5
v 2 23 1.5
v 2 24 1.5
v 3 0 1.5
v 3 1 1.5
v 3 8 1.5
v 3 9 1.5
v 3 16 1.5
v 3 19 1.5
v 3 21 1.5
v 3 22 1.5
v 3 23 1.5
v 4 21 1.5
v 4 22 1.5
v -4 9 0.5
v -4 10 0.5
v -4 16 0.5
v -3 1 0.5
v -3 8 0.5
v -3 9 0.5
v -3 10 0.5
v -3 16 0.5
v -1 1 0.5
v -1 8 0.5
v -1 16 0.5
v -1 17 0.5
v 0 16 0.5
v 1 1 0.5
v 1 8 0.5
v 1 16 0.5
v 1 17 0.5
v 3 1 0.5
v 3 8 0.5
v 3 9 0.5
v 3 10 0.5
v 3 16 0.5
v 4 9 0.5
v 4 10 0.5
v 4 16 0.5
v -2 16 1.5
v -2 17 1.5
v -1 16 1.5
v 0 16 1.5
v 2 16 1.5
v 2 17 1.5
v -4 17 0.5
v -4 19 0.5
v -3 17 0.5
v -3 19 0.5
v 3 17 0.5
v 3 19 0.5
v 4 17 0.5
v 4 19 0.5
v -4 9 -1.5
v -4 10 -1.5
v -4 16 -1.5
v -4 21 -1.5
v -4 22 -1.5
v -3 0 -1.5
v -3 1 -1.5
v -3 8 -1.5
v -3 9 -1.5
v -3 10 -1.5
v -3 16 -1.5
v -3 17 -1.5
v -3 21 -1.5
v -3 22 -1.5
v -3 23 -1.5
v -2 23 -1.5
v -2 24 -1.5
v -1 0 -1.5
v -1 1 -1.5
v -1 8 -1.5
v -1 16 -1.5
v -1 17 -1.5
v -1 24 -1.5
v -1 25 -1.5
v 1 0 -1.5
v 1 1 -1.5
v 1 8 -1.5
v 1 16 -1.5
v 1 17 -1.5
v 1 24 -1.5
v 1 25 -1.5
v 2 23 -1.5
v 2 24 -1.5
v 3 0 -1.5
v 3 1 -1.5
v 3 8 -1.5
v 3 9 -1.5
v 3 10 -1.5
v 3 16 -1.5
v 3 17 -1.5
v 3 21 -1.5
v 3 22 -1.5
v 3 23 -1.5
v 4 9 -1.5
v 4 10 -1.5
v 4 16 -1.5
v 4 21 -1.5
v 4 22 -1.5
v -3 8 -2.5
v -3 9 -2.5
v -3 16 -2.5
v -3 21 -2.5
v -3 22 -2.5
v 3 8 -2.5
v 3 9 -2.5
v 3 16 -2.5
v 3 21 -2.5
v 3 22 -2.5
v -3 0 1.5
v -1 0 1.5
v 1 0 1.5
v 3 0 1.5
v -3 0 -1.5
v -1 0 -1.5
v 1 0 -1.5
v 3 0 -1.5
v -3 8 1.5
v 3 8 1.5
v -3 8 0.5
v -1 8 0.5
v 1 8 0.5
v 3 8 0.5
v -3 8 -1.5
v -1 8 -1.5
v 1 8 -1.5
v 3 8 -1.5
v -3 8 -2.5
v 3 8 -2.5
v -4 9 0.5
v -3 9 0.5
v 3 9 0.5
v 4 9 0.5
v -4 9 -1.5
v -3 9 -1.5
v 3 9 -1.5
v 4 9 -1.5
v -1 15 2.5
v 1 15 2.5
v -1 15 1.5
v 1 15 1.5
v -2 16 2.5
v -1 16 2.5
v 1 16 2.5
v 2 16 2.5
v -2 16 1.5
v -1 16 1.5
v 1 16 1.5
v 2 16 1.5
v -4 17 2.5
v -2 17 2.5
v 2 17 2.5
v 4 17 2.5
v -3 17 1.5
v -2 17 1.5
v 2 17 1.5
v 3 17 1.5
v -4 17 0.5
v -3 17 0.5
v -1 17 0.5
v 1 17 0.5
v 3 17 0.5
v 4 17 0.5
v -3 17 -1.5
v -1 17 -1.5
v 1 17 -1.5
v 3 17 -1.5
v -1 18 2.5
v 1 18 2.5
v -1 18 1.5
v 1 18 1.5
v -3 21 2.5
v -1 21 2.5
v 1 21 2.5
v 3 21 2.5
v -4 21 1.5
v -3 21 1.5
v -2 21 1.5
v -1 21 1.5
v 1 21 1.5
v 2 21 1.5
v 3 21 1.5
v 4 21 1.5
v -4 21 -1.5
v -3 21 -1.5
v 3 21 -1.5
v 4 21 -1.5
v -3 21 -2.5
v 3 21 -2.5
v -3 1 1.5
v -1 1 1.5
v 1 1 1.5
v 3 1 1.5
v -3 1 0.5
v -1 1 0.5
v 1 1 0.5
v 3 1 0.5
v -3 16 1.5
v -2 16 1.5
v -1 16 1.5
v 0 16 1.5
v 2 16 1.5
v 3 16 1.5
v -4 16 0.5
v -3 16 0.5
v -1 16 0.5
v 0 16 0.5
v 1 16 0.5
v 3 16 0.5
v 4 16 0.5
v -4 16 -1.5
v -3 16 -1.5
v -1 16 -1.5
v 1 16 -1.5
v 3 16 -1.5
v 4 16 -1.5
v -3 16 -2.5
v 3 16 -2.5
v -1 17 2.5
v 1 17 2.5
v -1 17 1.5
v 1 17 1.5
v -4 19 2.5
v 4 19 2.5
v -3 19 1.5
v 3 19 1.5
v -4 19 0.5
v -3 19 0.5
v 3 19 0.5
v 4 19 0.5
v -3 22 2.5
v -1 22 2.5
v 1 22 2.5
v 3 22 2.5
v -4 22 1.5
v -3 22 1.5
v -1 22 1.5
v 1 22 1.5
v 3 22 1.5
v 4 22 1.5
v -4 22 -1.5
v -3 22 -1.5
v 3 22 -1.5
v 4 22 -1.5
v -3 22 -2.5
v 3 22 -2.5
v -3 23 1.5
v -2 23 1.5
v 2 23 1.5
v 3 23 1.5
v -3 23 -1.5
v -2 23 -1.5
v 2 23 -1.5
v 3 23 -1.5
v -2 24 1.5
v -1 24 1.5
v 1 24 1.5
v 2 24 1.5
v -2 24 -1.5
v -1 24 -1.5
v 1 24 -1.5
v 2 24 -1.5
v -1 25 1.5
v 1 25 1.5
v -1 25 -1.5
v 1 25 -1.5

# faces
f 3/9/1 2/9/1 1/9/1
f 4/9/1 2/9/1 3/9/1
f 5/4/1 4/4/1 3/4/1
f 6/4/1 4/4/1 5/4/1
f 9/5/1 8/5/1 7/5/1
f 10/5/1 8/5/1 9/5/1
f 13/6/1 12/6/1 11/6/1
f 14/6/1 12/6/1 13/6/1
f 17/3/1 16/3/1 15/3/1
f 18/3/1 16/3/1 17/3/1
f 19/3/1 16/3/1 18/3/1
f 21/2/1 19/2/1 18/2/1
f 22/2/1 19/2/1 21/2/1
f 24/2/1 22/2/1 21/2/1
f 24/2/1 23/2/1 22/2/1
f 24/2/1 21/2/1 20/2/1
f 25/2/1 23/2/1 24/2/1
f 26/2/1 23/2/1 25/2/1
f 27/2/1 23/2/1 26/2/1
f 28/4/1 25/4/1 24/4/1
f 29/4/1 27/4/1 26/4/1
f 30/4/1 28/4/1 24/4/1
f 31/4/1 28/4/1 30/4/1
f 32/4/1 27/4/1 29/4/1
f 33/4/1 27/4/1 32/4/1
f 37/9/1 35/9/1 34/9/1
f 39/9/1 37/9/1 36/9/1
f 40/9/1 35/9/1 37/9/1
f 40/9/1 37/9/1 39/9/1
f 42/6/1 39/6/1 38/6/1
f 43/6/1 39/6/1 42/6/1
f 44/6/1 41/6/1 40/6/1
f 45/6/1 41/6/1 44/6/1
f 46/6/1 44/6/1 43/6/1
f 47/6/1 44/6/1 46/6/1
f 50/5/1 49/5/1 48/5/1
f 51/5/1 49/5/1 50/5/1
f 54/6/1 53/6/1 52/6/1
f 55/6/1 53/6/1 54/6/1
f 58/5/1 57/5/1 56/5/1
f 59/5/1 57/5/1 58/5/1
f 62/8/1 61/8/1 60/8/1
f 63/8/1 61/8/1 62/8/1
f 66/6/1 65/6/1 64/6/1
f 67/6/1 65/6/1 66/6/1
f 70/3/1 69/3/1 68/3/1
f 71/3/1 69/3/1 70/3/1
f 72/3/1 69/3/1 71/3/1
f 73/2/1 72/2/1 71/2/1
f 74/2/1 72/2/1 73/2/1
f 77/5/1 76/5/1 75/5/1
f 78/5/1 76/5/1 77/5/1
f 79/3/2 80/3/2 81/3/2
f 81/3/2 80/3/2 82/3/2
f 82/3/2 80/3/2 83/3/2
f 82/2/2 83/2/2 84/2/2
f 84/2/2 83/2/2 85/2/2
f 86/5/2 87/5/2 88/5/2
f 88/5/2 87/5/2 89/5/2
f 90/5/2 91/5/2 92/5/2
f 92/5/2 91/5/2 93/5/2
f 94/8/2 95/8/2 96/8/2
f 96/8/2 95/8/2 97/8/2
f 98/6/2 99/6/2 100/6/2
f 100/6/2 99/6/2 101/6/2
f 102/5/2 103/5/2 104/5/2
f 104/5/2 103/5/2 105/5/2
f 106/6/2 107/6/2 108/6/2
f 108/6/2 107/6/2 109/6/2
f 110/3/2 111/3/2 112/3/2
f 112/3/2 111/3/2 113/3/2
f 113/3/2 111/3/2 114/3/2
f 113/2/2 114/2/2 116/2/2
f 116/2/2 114/2/2 117/2/2
f 116/2/2 117/2/2 119/2/2
f 117/2/2 118/2/2 119/2/2
f 115/2/2 116/2/2 119/2/2
f 119/2/2 118/2/2 120/2/2
f 120/2/2 118/2/2 121/2/2
f 121/2/2 118/2/2 122/2/2
f 119/4/2 120/4/2 123/4/2
f 121/4/2 122/4/2 124/4/2
f 119/4/2 123/4/2 125/4/2
f 125/4/2 123/4/2 126/4/2
f 124/4/2 122/4/2 127/4/2
f 127/4/2 122/4/2 128/4/2
f 129/9/2 130/9/2 132/9/2
f 131/9/2 132/9/2 134/9/2
f 132/9/2 130/9/2 135/9/2
f 134/9/2 132/9/2 135/9/2
f 133/6/2 134/6/2 137/6/2
f 137/6/2 134/6/2 138/6/2
f 135/6/2 136/6/2 139/6/2
f 139/6/2 136/6/2 140/6/2
f 138/6/2 139/6/2 141/6/2
f 141/6/2 139/6/2 142/6/2
f 143/9/2 144/9/2 145/9/2
f 145/9/2 144/9/2 146/9/2
f 145/4/2 146/4/2 147/4/2
f 147/4/2 146/4/2 148/4/2
f 149/5/2 150/5/2 151/5/2
f 151/5/2 150/5/2 152/5/2
f 153/6/2 154/6/2 155/6/2
f 155/6/2 154/6/2 156/6/2
f 162/5/3 158/5/3 157/5/3
f 164/5/3 162/5/3 161/5/3
f 165/5/3 158/5/3 162/5/3
f 165/5/3 162/5/3 164/5/3
f 166/5/3 158/5/3 165/5/3
f 167/6/3 160/6/3 159/6/3
f 168/6/3 160/6/3 167/6/3
f 169/5/3 164/5/3 163/5/3
f 169/5/3 165/5/3 164/5/3
f 170/5/3 165/5/3 169/5/3
f 171/5/3 165/5/3 170/5/3
f 172/5/3 158/5/3 166/5/3
f 173/1/3 168/1/3 167/1/3
f 174/1/3 168/1/3 173/1/3
f 175/5/3 171/5/3 170/5/3
f 175/5/3 172/5/3 171/5/3
f 176/5/3 172/5/3 175/5/3
f 177/6/3 174/6/3 173/6/3
f 178/6/3 174/6/3 177/6/3
f 179/5/3 172/5/3 176/5/3
f 180/5/3 158/5/3 172/5/3
f 180/5/3 172/5/3 179/5/3
f 189/6/3 182/6/3 181/6/3
f 190/6/3 182/6/3 189/6/3
f 192/4/3 187/4/3 186/4/3
f 193/4/3 187/4/3 192/4/3
f 194/4/3 187/4/3 193/4/3
f 195/9/3 189/9/3 188/9/3
f 196/9/3 189/9/3 195/9/3
f 197/6/3 191/6/3 190/6/3
f 199/3/3 184/3/3 183/3/3
f 200/3/3 184/3/3 199/3/3
f 201/4/3 192/4/3 186/4/3
f 201/11/3 193/11/3 192/11/3
f 202/11/3 193/11/3 201/11/3
f 203/11/3 193/11/3 202/11/3
f 204/4/3 194/4/3 193/4/3
f 204/11/3 193/11/3 203/11/3
f 205/4/3 194/4/3 204/4/3
f 206/4/3 194/4/3 205/4/3
f 209/3/3 196/3/3 195/3/3
f 209/9/3 195/9/3 188/9/3
f 210/3/3 196/3/3 209/3/3
f 211/6/3 198/6/3 197/6/3
f 211/6/3 197/6/3 190/6/3
f 212/6/3 198/6/3 211/6/3
f 214/4/3 201/4/3 186/4/3
f 214/4/3 202/4/3 201/4/3
f 215/11/3 203/11/3 202/11/3
f 215/4/3 202/4/3 214/4/3
f 216/4/3 205/4/3 204/4/3
f 216/11/3 203/11/3 215/11/3
f 216/4/3 204/4/3 203/4/3
f 217/4/3 205/4/3 216/4/3
f 220/4/3 214/4/3 186/4/3
f 220/11/3 215/11/3 214/11/3
f 220/11/3 216/11/3 215/11/3
f 220/11/3 217/11/3 216/11/3
f 221/4/3 205/4/3 217/4/3
f 221/11/3 217/11/3 220/11/3
f 222/4/3 205/4/3 221/4/3
f 224/9/3 208/9/3 207/9/3
f 225/9/3 208/9/3 224/9/3
f 226/9/3 210/9/3 209/9/3
f 226/9/3 209/9/3 188/9/3
f 227/9/3 210/9/3 226/9/3
f 228/6/3 213/6/3 212/6/3
f 228/6/3 212/6/3 211/6/3
f 229/6/3 213/6/3 228/6/3
f 230/6/3 213/6/3 229/6/3
f 231/4/3 223/4/3 222/4/3
f 231/4/3 221/4/3 220/4/3
f 231/4/3 222/4/3 221/4/3
f 232/3/3 227/3/3 226/3/3
f 232/9/3 226/9/3 188/9/3
f 233/3/3 227/3/3 232/3/3
f 234/6/3 229/6/3 228/6/3
f 235/6/3 229/6/3 234/6/3
f 236/3/3 219/3/3 218/3/3
f 237/3/3 219/3/3 236/3/3
f 238/2/3 186/2/3 185/2/3
f 239/4/3 231/4/3 220/4/3
f 239/2/3 186/2/3 238/2/3
f 239/4/3 220/4/3 186/4/3
f 240/4/3 231/4/3 239/4/3
f 241/9/3 233/9/3 232/9/3
f 241/9/3 232/9/3 188/9/3
f 242/9/3 233/9/3 241/9/3
f 243/6/3 234/6/3 228/6/3
f 244/6/3 234/6/3 243/6/3
f 245/6/3 243/6/3 242/6/3
f 246/6/3 243/6/3 245/6/3
f 252/9/3 248/9/3 247/9/3
f 253/4/3 249/4/3 248/4/3
f 253/9/3 248/9/3 252/9/3
f 254/4/3 249/4/3 253/4/3
f 255/2/3 251/2/3 250/2/3
f 256/2/3 251/2/3 255/2/3
f 259/8/3 258/8/3 257/8/3
f 262/8/3 258/8/3 259/8/3
f 263/8/3 258/8/3 262/8/3
f 264/2/3 261/2/3 260/2/3
f 265/2/3 261/2/3 264/2/3
f 269/9/3 267/9/3 266/9/3
f 270/4/3 268/4/3 267/4/3
f 270/9/3 267/9/3 269/9/3
f 271/4/3 268/4/3 270/4/3
f 272/5/4 273/5/4 274/5/4
f 274/5/4 273/5/4 275/5/4
f 275/5/4 273/5/4 276/5/4
f 276/5/4 273/5/4 277/5/4
f 278/5/4 279/5/4 280/5/4
f 280/5/4 279/5/4 281/5/4
f 282/5/4 283/5/4 284/5/4
f 284/5/4 283/5/4 285/5/4
f 286/9/4 287/9/4 294/9/4
f 287/4/4 288/4/4 295/4/4
f 294/9/4 287/9/4 295/9/4
f 295/4/4 288/4/4 296/4/4
f 289/6/4 290/6/4 298/6/4
f 298/6/4 290/6/4 299/6/4
f 299/6/4 300/6/4 301/6/4
f 291/3/4 292/3/4 303/3/4
f 292/2/4 293/2/4 304/2/4
f 303/3/4 292/3/4 304/3/4
f 304/2/4 293/2/4 305/2/4
f 297/9/4 298/9/4 307/9/4
f 301/6/4 302/6/4 308/6/4
f 306/8/4 307/8/4 313/8/4
f 307/9/4 298/9/4 314/9/4
f 313/8/4 307/8/4 314/8/4
f 308/6/4 309/6/4 315/6/4
f 301/6/4 308/6/4 315/6/4
f 315/6/4 309/6/4 316/6/4
f 299/6/4 301/6/4 317/6/4
f 301/6/4 315/6/4 317/6/4
f 317/6/4 315/6/4 318/6/4
f 310/3/4 311/3/4 319/3/4
f 311/2/4 312/2/4 320/2/4
f 319/3/4 311/3/4 320/3/4
f 320/2/4 312/2/4 321/2/4
f 314/9/4 298/9/4 325/9/4
f 325/9/4 298/9/4 326/9/4
f 299/6/4 317/6/4 327/6/4
f 327/6/4 317/6/4 328/6/4
f 322/9/4 323/9/4 329/9/4
f 323/4/4 324/4/4 330/4/4
f 329/9/4 323/9/4 330/9/4
f 330/4/4 324/4/4 331/4/4
f 326/6/4 327/6/4 332/6/4
f 332/6/4 327/6/4 333/6/4
f 334/2/4 335/2/4 339/2/4
f 335/4/4 336/4/4 340/4/4
f 339/2/4 335/2/4 340/2/4
f 340/4/4 336/4/4 341/4/4
f 337/6/4 338/6/4 342/6/4
f 342/6/4 338/6/4 343/6/4
f 348/3/5 345/3/5 344/3/5
f 349/3/5 345/3/5 348/3/5
f 350/3/5 347/3/5 346/3/5
f 351/3/5 347/3/5 350/3/5
f 354/2/5 353/2/5 352/2/5
f 355/2/5 353/2/5 354/2/5
f 356/2/5 353/2/5 355/2/5
f 357/2/5 353/2/5 356/2/5
f 359/4/5 356/4/5 355/4/5
f 360/4/5 356/4/5 359/4/5
f 362/2/5 359/2/5 358/2/5
f 362/2/5 361/2/5 360/2/5
f 362/2/5 360/2/5 359/2/5
f 363/2/5 361/2/5 362/2/5
f 368/9/5 365/9/5 364/9/5
f 369/9/5 365/9/5 368/9/5
f 370/9/5 367/9/5 366/9/5
f 371/9/5 367/9/5 370/9/5
f 374/5/5 373/5/5 372/5/5
f 375/5/5 373/5/5 374/5/5
f 380/5/5 377/5/5 376/5/5
f 381/5/5 377/5/5 380/5/5
f 382/5/5 379/5/5 378/5/5
f 383/5/5 379/5/5 382/5/5
f 388/5/5 385/5/5 384/5/5
f 389/5/5 385/5/5 388/5/5
f 390/5/5 387/5/5 386/5/5
f 391/5/5 387/5/5 390/5/5
f 392/5/5 388/5/5 384/5/5
f 393/9/5 389/9/5 388/9/5
f 393/5/5 388/5/5 392/5/5
f 393/9/5 390/9/5 389/9/5
f 393/9/5 391/9/5 390/9/5
f 394/9/5 391/9/5 393/9/5
f 395/9/5 391/9/5 394/9/5
f 396/5/5 387/5/5 391/5/5
f 396/9/5 391/9/5 395/9/5
f 397/5/5 387/5/5 396/5/5
f 398/9/5 394/9/5 393/9/5
f 399/9/5 394/9/5 398/9/5
f 400/9/5 396/9/5 395/9/5
f 401/9/5 396/9/5 400/9/5
f 404/5/5 403/5/5 402/5/5
f 405/5/5 403/5/5 404/5/5
f 411/6/5 407/6/5 406/6/5
f 412/6/5 407/6/5 411/6/5
f 413/1/5 408/1/5 407/1/5
f 413/6/5 407/6/5 412/6/5
f 414/6/5 409/6/5 408/6/5
f 414/1/5 408/1/5 413/1/5
f 415/6/5 409/6/5 414/6/5
f 416/6/5 409/6/5 415/6/5
f 418/6/5 411/6/5 410/6/5
f 419/6/5 411/6/5 418/6/5
f 420/6/5 417/6/5 416/6/5
f 421/6/5 417/6/5 420/6/5
f 422/6/5 420/6/5 419/6/5
f 423/6/5 420/6/5 422/6/5
f 424/3/6 425/3/6 428/3/6
f 428/3/6 425/3/6 429/3/6
f 426/3/6 427/3/6 430/3/6
f 430/3/6 427/3/6 431/3/6
f 432/4/6 433/4/6 439/4/6
f 433/4/6 434/4/6 439/4/6
f 434/7/6 435/7/6 440/7/6
f 439/4/6 434/4/6 440/4/6
f 436/4/6 437/4/6 441/4/6
f 440/7/6 435/7/6 441/7/6
f 435/4/6 436/4/6 441/4/6
f 441/4/6 437/4/6 442/4/6
f 442/4/6 437/4/6 443/4/6
f 439/4/6 440/4/6 445/4/6
f 438/4/6 439/4/6 445/4/6
f 445/4/6 440/4/6 446/4/6
f 446/4/6 440/4/6 447/4/6
f 443/4/6 444/4/6 448/4/6
f 442/4/6 443/4/6 448/4/6
f 448/4/6 444/4/6 449/4/6
f 449/4/6 444/4/6 450/4/6
f 446/4/6 447/4/6 451/4/6
f 448/4/6 449/4/6 451/4/6
f 447/4/6 448/4/6 451/4/6
f 451/4/6 449/4/6 452/4/6
f 453/5/6 454/5/6 455/5/6
f 455/5/6 454/5/6 456/5/6
f 457/5/6 458/5/6 459/5/6
f 459/5/6 458/5/6 460/5/6
f 457/5/6 459/5/6 461/5/6
f 461/5/6 459/5/6 462/5/6
f 460/5/6 458/5/6 463/5/6
f 463/5/6 458/5/6 464/5/6
f 465/6/6 466/6/6 470/6/6
f 466/1/6 467/1/6 471/1/6
f 470/6/6 466/6/6 471/6/6
f 467/6/6 468/6/6 472/6/6
f 471/1/6 467/1/6 472/1/6
f 472/6/6 468/6/6 473/6/6
f 469/6/6 470/6/6 475/6/6
f 475/6/6 470/6/6 476/6/6
f 473/6/6 474/6/6 477/6/6
f 477/6/6 474/6/6 478/6/6
f 476/6/6 477/6/6 479/6/6
f 479/6/6 477/6/6 480/6/6
f 481/6/6 482/6/6 485/6/6
f 485/6/6 482/6/6 486/6/6
f 483/6/6 484/6/6 487/6/6
f 487/6/6 484/6/6 488/6/6
f 489/6/6 490/6/6 493/6/6
f 493/6/6 490/6/6 494/6/6
f 491/6/6 492/6/6 495/6/6
f 495/6/6 492/6/6 496/6/6
f 497/6/6 498/6/6 499/6/6
f 499/6/6 498/6/6 500/6/6
